<svg viewBox="0 0 630 630" xmlns="http://www.w3.org/2000/svg">

<path d="M327.16 57.3763C361.97 21.7531 441.339 205.495 378.562 311.704C364.602 335.32 360.459 320.878 342.196 325.843C331.909 328.637 327.721 292.825 281.457 315.253C251.041 329.997 255.493 261.148 212.352 277.213C118.165 312.27 244.988 47.6163 327.172 57.3763H327.16Z" fill="#230F0F"/>
<path fill-rule="evenodd" clip-rule="evenodd" d="M328.23 55.6748C322.799 65.0574 308.486 67.1298 295.432 63.0854C281.446 58.7521 274.189 43.5918 279.922 30.1649C283.399 22.0133 289.825 14.9921 299.426 11.2492C309.028 7.50619 319.725 11.5129 324.563 20.4935C330.7 31.8857 332.892 47.6488 328.243 55.6874L328.23 55.6748Z" fill="#230F0F"/>
<path d="M342.896 156.295C344.03 150.63 346.424 146.159 349.461 143.232C353.896 138.962 359.767 137.832 365.173 140.783C368.348 142.517 371.284 145.732 373.64 150.605C371.574 152.816 369.268 153.683 366.786 153.796C361.342 143.76 352.989 146.774 350.481 156.873C347.76 157.576 345.24 157.174 342.896 156.283V156.295Z" fill="#FFF8F5"/>
<path d="M344.307 151.359C345.592 147.993 347.369 145.255 349.46 143.232C353.895 138.962 359.767 137.832 365.172 140.783C367.062 141.813 368.864 143.371 370.502 145.481C368.007 146.737 365.324 147.842 362.489 148.759C359.2 146.624 355.697 147.616 353.19 150.894C350.128 151.321 347.129 151.472 344.294 151.346L344.307 151.359Z" fill="white" stroke="#230F0F" stroke-width="2.52" stroke-miterlimit="10"/>
<path fill-rule="evenodd" clip-rule="evenodd" d="M328.809 145.996C324.487 140.331 303.924 134.089 300.358 136.877C299.388 156.371 295.507 182.069 291.45 192.042C302.425 195.533 324.198 194.277 333.711 191.803C328.645 182.358 327.826 153.218 328.809 145.983V145.996Z" fill="white" stroke="#592929" stroke-width="2.52" stroke-miterlimit="10"/>
<path fill-rule="evenodd" clip-rule="evenodd" d="M349.788 109.232C355.206 107.737 360.902 111.254 362.514 117.069C364.127 122.897 361.053 128.826 355.635 130.308C350.217 131.803 344.522 128.286 342.909 122.47C341.296 116.655 344.37 110.714 349.788 109.232Z" fill="white" stroke="#592929" stroke-width="2.52" stroke-miterlimit="10"/>
<path fill-rule="evenodd" clip-rule="evenodd" d="M300.346 136.877C279.291 147.905 271.945 106.682 298.582 117.622C305.26 107.31 317.469 105.363 318.603 86.6861C323.177 86.3721 327.65 86.4475 332.01 87.0253C342.052 88.3441 350.506 95.0638 354.236 104.459C364.089 129.278 352.787 154.7 336.747 160.076C325.533 163.844 313.147 154.298 300.333 136.89L300.346 136.877Z" fill="white" stroke="#592929" stroke-width="2.52" stroke-miterlimit="10"/>
<path d="M287.406 125.435C286.738 125.824 285.894 125.61 285.491 124.945C285.1 124.279 285.314 123.437 285.982 123.036C286.234 122.885 286.499 122.747 286.763 122.621C288.628 121.717 290.669 121.415 292.622 121.955C294.563 122.483 296.365 123.827 297.763 126.176C297.94 126.465 298.103 126.779 298.267 127.105C298.494 127.52 298.519 128.035 298.267 128.474C297.889 129.14 297.032 129.366 296.365 128.989C295.533 128.512 294.752 128.198 294.021 128.009C293.29 127.821 292.597 127.783 291.98 127.846C291.211 127.934 290.531 127.381 290.443 126.615C290.354 125.849 290.909 125.171 291.677 125.083C292.093 125.033 292.509 125.02 292.95 125.045C292.61 124.857 292.257 124.706 291.892 124.606C290.632 124.254 289.271 124.48 287.986 125.095C287.797 125.183 287.608 125.284 287.406 125.409V125.435Z" fill="#230F0F"/>
<path d="M299.174 137.618C298.758 136.965 298.96 136.111 299.615 135.709C300.27 135.294 301.127 135.495 301.53 136.148C303.698 139.577 306.318 143.107 309.481 146.473C312.644 149.827 316.335 153.017 320.67 155.755C321.312 156.17 321.514 157.024 321.098 157.664C320.682 158.305 319.826 158.506 319.183 158.091C314.634 155.202 310.766 151.874 307.465 148.37C304.164 144.865 301.442 141.198 299.187 137.631L299.174 137.618Z" fill="#230F0F"/>
<path d="M266.49 155.856C270.308 150.517 274.882 146.988 279.38 145.38C285.97 143.006 292.572 144.564 296.793 150.141C299.275 153.406 300.813 158.104 300.976 164.246C297.801 165.565 295.004 165.401 292.383 164.371C291.438 151.459 281.371 150.706 274.063 160C270.913 159.46 268.494 157.89 266.478 155.868L266.49 155.856Z" fill="#FFF8F5"/>
<path d="M270.258 151.397C273.156 148.508 276.293 146.486 279.393 145.38C285.982 143.006 292.585 144.564 296.806 150.141C298.28 152.087 299.414 154.524 300.132 157.476C296.97 157.627 293.668 157.526 290.304 157.149C287.898 153.406 283.803 152.803 279.682 155.052C276.306 154.072 273.143 152.841 270.258 151.397Z" fill="white" stroke="#230F0F" stroke-width="2.52" stroke-miterlimit="10"/>
<path fill-rule="evenodd" clip-rule="evenodd" d="M321.313 480.841L292.862 480.213L290.871 559.636C315.97 569.479 465.142 572.932 478.75 545.612C372.305 519.987 383.38 434.375 321.313 480.841Z" fill="white" stroke="#230F0F" stroke-width="2.52" stroke-miterlimit="10"/>
<path fill-rule="evenodd" clip-rule="evenodd" d="M438.581 562.285C459.22 558.945 474.781 553.597 478.75 545.612C462.004 541.582 448.157 536.058 436.489 529.805C435.229 534.024 434.549 538.543 434.549 543.239C434.549 550.082 435.998 556.547 438.581 562.285Z" fill="white" stroke="#231F20" stroke-width="2.52" stroke-miterlimit="10"/>
<path fill-rule="evenodd" clip-rule="evenodd" d="M345.391 598.149L343 502.888C353.065 497.256 476.863 455.106 480.193 447.216C470.702 427.805 468.159 402.16 404.755 385.912C721.491 273.243 706.415 578.106 345.391 598.134V598.149Z" fill="#230F0F"/>
<path fill-rule="evenodd" clip-rule="evenodd" d="M342.922 491.474L342.682 481.895C351.061 477.199 454.117 442.058 456.889 435.479C448.989 419.295 446.872 397.914 394.09 384.367C487.86 350.958 546.664 361.605 570.037 389.904C538.738 443.062 450.803 483.301 342.922 491.461V491.474Z" fill="#371919"/>
<path fill-rule="evenodd" clip-rule="evenodd" d="M296.629 554.137C313.286 534.262 412.889 483.678 406.715 452.855C397.568 407.118 271.593 383.426 236.263 394.462C38.3669 323.978 -26.8759 493.571 156.782 544.269C193.838 554.501 238.052 556.146 296.617 554.137H296.629Z" fill="#230F0F"/>
<path fill-rule="evenodd" clip-rule="evenodd" d="M390.915 482.536C401.776 471.826 408.467 461.556 406.728 452.855C397.581 407.118 271.606 383.426 236.276 394.462C144.56 361.794 81.3585 380.714 58.1997 415.442C106.168 459.924 197.531 489.993 302.375 489.993C333.321 489.993 363.082 487.369 390.915 482.536Z" fill="#371919"/>
<path fill-rule="evenodd" clip-rule="evenodd" d="M323.476 519.583L349.058 513.253L369.074 594.731C348.636 609.892 214.541 643.247 195.97 617.801C286.345 570.124 256.695 484.079 323.476 519.583Z" fill="white" stroke="#230F0F" stroke-width="2.52" stroke-miterlimit="10"/>
<path fill-rule="evenodd" clip-rule="evenodd" d="M238.178 627.681C217.809 628.527 201.795 626.214 196.175 618.721C211.138 611.008 223.003 602.344 232.63 593.378C234.804 597.512 236.499 602.082 237.588 606.978C239.175 614.112 239.299 621.157 238.178 627.681Z" fill="white" stroke="#231F20" stroke-width="2.52" stroke-miterlimit="10"/>
<path fill-rule="evenodd" clip-rule="evenodd" d="M259.659 555.25C277.91 519.342 286.817 496.286 333.473 522.011C327.898 539.617 313.017 553.972 293.247 558.339C281.501 560.934 269.835 559.601 259.659 555.25Z" fill="white" stroke="#231F20" stroke-width="2.52" stroke-miterlimit="10"/>
<path d="M367.479 507.371C366.883 507.864 366.012 507.787 365.518 507.193C365.024 506.6 365.104 505.731 365.7 505.237L471.868 416.682C472.464 416.188 473.336 416.265 473.829 416.859C474.323 417.453 474.244 418.321 473.647 418.815L367.479 507.371Z" fill="white"/>
<path d="M156.681 431.876C155.963 431.6 155.61 430.796 155.887 430.081C156.164 429.365 156.971 429.014 157.689 429.29L263.39 470.144C264.109 470.42 264.461 471.223 264.184 471.939C263.907 472.655 263.101 473.006 262.382 472.73L156.681 431.876Z" fill="white"/>
<path fill-rule="evenodd" clip-rule="evenodd" d="M359.1 216.022C365.892 206.442 362.175 191.503 359.541 185.614C327.663 184.095 297.637 182.689 272.198 179.212C267.095 185.941 264.021 207.233 269.791 218.821C210.206 228.614 25.9436 390.266 204.045 430.642C519.12 527.274 600.226 317.776 359.088 216.009L359.1 216.022Z" fill="white" stroke="#230F0F" stroke-width="2.52" stroke-miterlimit="10"/>
<path d="M276.128 220.805C275.435 220.478 275.133 219.65 275.461 218.959C275.788 218.269 276.62 217.968 277.313 218.294C282.076 220.516 292.471 222.437 303.156 223.554C314.029 224.684 325.13 224.973 330.838 223.868C331.594 223.73 332.324 224.22 332.463 224.973C332.602 225.726 332.11 226.454 331.354 226.592C325.382 227.748 313.966 227.471 302.853 226.316C291.904 225.174 281.168 223.165 276.116 220.805H276.128Z" fill="#230F0F"/>
<path d="M235.355 270.245C235.469 269.491 236.187 268.964 236.943 269.077C237.699 269.19 238.228 269.906 238.115 270.659L222.34 381.754C222.226 382.508 221.508 383.035 220.752 382.922C220.147 382.834 219.694 382.357 219.593 381.792C219.278 380.649 217.804 377.335 217.363 376.218C213.129 365.484 203.767 357.511 192.78 352.942C181.73 348.359 169.079 347.217 158.306 350.167C156.946 350.544 155.597 350.983 154.262 351.51C153.544 351.787 152.737 351.435 152.46 350.719C152.183 350.004 152.536 349.2 153.254 348.924C154.64 348.384 156.089 347.907 157.588 347.493C168.953 344.379 182.272 345.572 193.864 350.38C205.002 355.001 214.578 362.985 219.353 373.732L235.381 270.245H235.355Z" fill="#230F0F"/>
<path d="M384.64 279.46C384.488 278.706 384.967 277.978 385.723 277.815C386.479 277.664 387.21 278.142 387.374 278.895L405.102 364.027C405.253 364.78 404.774 365.509 404.018 365.672C403.262 365.835 402.532 365.345 402.368 364.592L384.64 279.46Z" fill="#230F0F"/>
<path fill-rule="evenodd" clip-rule="evenodd" d="M204.057 430.929L221.395 383.684L268.368 394.513L324.564 428.492C321.464 433.789 319.284 438.264 311.371 438.662C315.454 442.529 322.686 444.12 325.433 446.743C321.628 455.745 305.664 453.184 303.408 452.052C289.082 467.121 263.769 449.367 254.13 446.097C248.296 446.669 214.931 443.287 204.07 430.941L204.057 430.929Z" fill="white" stroke="#230F0F" stroke-width="2.52" stroke-miterlimit="10"/>
<path d="M263.491 428.505C262.849 428.094 262.647 427.249 263.063 426.615C263.479 425.981 264.336 425.782 264.978 426.192L304.139 450.896C304.782 451.306 304.983 452.152 304.567 452.786C304.152 453.42 303.295 453.619 302.652 453.209L263.491 428.505Z" fill="#230F0F"/>
<path d="M269.388 413.61C268.771 413.15 268.645 412.292 269.098 411.683C269.564 411.074 270.434 410.95 271.051 411.397C275.612 414.766 286.763 421.903 297.889 428.803C310.716 436.76 323.467 444.369 325.987 445.488C326.693 445.799 327.008 446.607 326.693 447.303C326.378 447.999 325.559 448.31 324.853 447.999C322.207 446.831 309.317 439.135 296.402 431.14C285.201 424.19 273.974 417.004 269.388 413.623V413.61Z" fill="#230F0F"/>
<path d="M276.721 401.177C276.066 400.779 275.852 399.934 276.255 399.288C276.658 398.641 277.515 398.43 278.17 398.828L325.294 427.311C325.95 427.709 326.164 428.554 325.761 429.201C325.357 429.847 324.501 430.059 323.845 429.661L276.721 401.177Z" fill="#230F0F"/>
<path fill-rule="evenodd" clip-rule="evenodd" d="M402.696 218.352C408.026 221.311 410.395 227.18 407.988 231.456C405.594 235.732 399.319 236.798 394.002 233.839C388.672 230.879 386.304 225.011 388.71 220.734C391.117 216.458 397.379 215.392 402.696 218.352Z" fill="white" stroke="#230F0F" stroke-width="2.52" stroke-miterlimit="10"/>
<path fill-rule="evenodd" clip-rule="evenodd" d="M430.933 227.92C422.579 223.882 399.899 222.001 387.312 224.17C380.319 225.374 383.821 238.98 387.841 240.147C384.842 244.686 384.716 252.473 388.786 258.305C386.505 262.568 387.576 271.246 391.671 274.995C395.943 289.743 403.314 290.32 411.554 290.921L411.126 426.066C491.211 424.248 473.609 331.865 447.489 268.224L430.945 227.907L430.933 227.92Z" fill="white" stroke="#230F0F" stroke-width="2.52" stroke-miterlimit="10"/>
<path d="M387.967 241.526C387.198 241.589 386.53 241.024 386.467 240.259C386.404 239.494 386.971 238.83 387.74 238.767C392.062 238.403 397.518 238.617 402.797 239.093C409.601 239.72 416.14 240.786 419.656 241.676C420.399 241.865 420.853 242.617 420.676 243.357C420.5 244.097 419.731 244.548 418.988 244.36C415.548 243.495 409.185 242.441 402.545 241.839C397.429 241.375 392.15 241.175 387.967 241.526Z" fill="#230F0F"/>
<path d="M388.899 259.646C388.131 259.709 387.463 259.145 387.4 258.38C387.337 257.615 387.904 256.95 388.673 256.888C392.919 256.524 397.959 256.737 402.835 257.226C409.337 257.866 415.523 259.007 419.102 259.91C419.845 260.098 420.299 260.85 420.122 261.59C419.933 262.33 419.177 262.781 418.434 262.606C414.944 261.728 408.896 260.625 402.57 259.998C397.871 259.534 392.994 259.32 388.912 259.671L388.899 259.646Z" fill="#230F0F"/>
<path d="M391.659 276.375C390.89 276.375 390.273 275.748 390.273 274.983C390.273 274.218 390.903 273.604 391.671 273.604C396.359 273.629 401.336 273.98 405.935 274.494C411.025 275.071 415.687 275.873 418.976 276.701C419.719 276.889 420.173 277.641 419.996 278.381C419.807 279.121 419.051 279.573 418.308 279.397C415.12 278.595 410.597 277.817 405.645 277.265C401.096 276.751 396.207 276.413 391.671 276.387L391.659 276.375Z" fill="#230F0F"/>
<path fill-rule="evenodd" clip-rule="evenodd" d="M372.935 308.727H572.972L502.74 456.835H302.715L372.935 308.727Z" fill="white"/>
<path d="M373.174 307.328H575.404L503.862 458.234H300.75C324.589 407.928 348.441 357.622 372.292 307.328H373.174ZM571.007 310.107H374.056L305.147 455.468H502.097L571.007 310.107Z" fill="#230F0F"/>
<path d="M245.737 458.234C244.969 458.234 244.339 457.829 244.339 457.335C244.339 456.842 244.969 456.437 245.737 456.437H502.752C503.521 456.437 504.151 456.842 504.151 457.335C504.151 457.829 503.521 458.234 502.752 458.234H245.737Z" fill="#691B1B"/>
<path d="M387.016 391.48C385.384 391.48 384.008 391.224 382.888 390.712C381.784 390.2 380.944 389.504 380.368 388.624C379.808 387.728 379.528 386.704 379.528 385.552L383.848 385.552C383.848 385.968 383.96 386.352 384.184 386.704C384.424 387.04 384.776 387.304 385.24 387.496C385.704 387.688 386.296 387.784 387.016 387.784C387.64 387.784 388.168 387.704 388.6 387.544C389.048 387.384 389.384 387.16 389.608 386.872C389.848 386.584 389.968 386.24 389.968 385.84C389.968 385.328 389.752 384.936 389.32 384.664C388.888 384.376 388.16 384.192 387.136 384.112L386.008 384.016C384.2 383.856 382.76 383.288 381.688 382.312C380.616 381.336 380.08 380.04 380.08 378.424C380.08 377.272 380.344 376.288 380.872 375.472C381.416 374.656 382.176 374.032 383.152 373.6C384.128 373.168 385.28 372.952 386.608 372.952C388.048 372.952 389.264 373.192 390.256 373.672C391.264 374.152 392.032 374.832 392.56 375.712C393.088 376.576 393.352 377.584 393.352 378.736L389.032 378.736C389.032 378.352 388.936 378 388.744 377.68C388.552 377.36 388.272 377.112 387.904 376.936C387.552 376.744 387.12 376.648 386.608 376.648C386.128 376.648 385.72 376.728 385.384 376.888C385.064 377.032 384.816 377.24 384.64 377.512C384.48 377.784 384.4 378.088 384.4 378.424C384.4 378.872 384.552 379.256 384.856 379.576C385.16 379.896 385.688 380.088 386.44 380.152L387.568 380.248C388.88 380.36 390.04 380.648 391.048 381.112C392.056 381.56 392.848 382.176 393.424 382.96C394 383.744 394.288 384.704 394.288 385.84C394.288 386.976 393.992 387.968 393.4 388.816C392.824 389.664 391.992 390.32 390.904 390.784C389.832 391.248 388.536 391.48 387.016 391.48ZM395.924 391L395.924 377.752L399.38 377.752L399.38 383.464L399.188 383.464C399.188 382.088 399.356 380.952 399.692 380.056C400.044 379.144 400.556 378.464 401.228 378.016C401.9 377.552 402.724 377.32 403.7 377.32L403.892 377.32C404.884 377.32 405.708 377.552 406.364 378.016C407.036 378.464 407.54 379.144 407.876 380.056C408.228 380.952 408.404 382.088 408.404 383.464L407.396 383.464C407.396 382.088 407.564 380.952 407.9 380.056C408.252 379.144 408.764 378.464 409.436 378.016C410.108 377.552 410.932 377.32 411.908 377.32L412.1 377.32C413.092 377.32 413.924 377.552 414.596 378.016C415.284 378.464 415.804 379.144 416.156 380.056C416.524 380.952 416.708 382.088 416.708 383.464L416.708 391L412.34 391L412.34 383.344C412.34 382.736 412.172 382.232 411.836 381.832C411.516 381.416 411.052 381.208 410.444 381.208C409.836 381.208 409.356 381.416 409.004 381.832C408.668 382.232 408.5 382.752 408.5 383.392L408.5 391L404.132 391L404.132 383.344C404.132 382.736 403.964 382.232 403.628 381.832C403.308 381.416 402.844 381.208 402.236 381.208C401.628 381.208 401.148 381.416 400.796 381.832C400.46 382.232 400.292 382.752 400.292 383.392L400.292 391L395.924 391ZM427.179 391L427.179 387.112L426.459 387.112L426.459 382.96C426.459 382.352 426.315 381.904 426.027 381.616C425.755 381.312 425.299 381.16 424.659 381.16C424.355 381.16 423.907 381.168 423.315 381.184C422.723 381.2 422.099 381.224 421.443 381.256C420.787 381.288 420.187 381.32 419.643 381.352L419.643 377.704C420.027 377.672 420.483 377.64 421.011 377.608C421.539 377.576 422.083 377.552 422.643 377.536C423.219 377.52 423.747 377.512 424.227 377.512C425.587 377.512 426.739 377.712 427.683 378.112C428.643 378.512 429.371 379.112 429.867 379.912C430.379 380.712 430.635 381.728 430.635 382.96L430.635 391L427.179 391ZM422.979 391.336C422.051 391.336 421.227 391.168 420.507 390.832C419.787 390.496 419.219 390.016 418.803 389.392C418.403 388.752 418.203 387.992 418.203 387.112C418.203 386.12 418.467 385.32 418.995 384.712C419.523 384.088 420.251 383.632 421.179 383.344C422.107 383.056 423.171 382.912 424.371 382.912L426.939 382.912L426.939 385.168L424.371 385.168C423.779 385.168 423.323 385.32 423.003 385.624C422.683 385.912 422.523 386.304 422.523 386.8C422.523 387.28 422.683 387.672 423.003 387.976C423.323 388.264 423.779 388.408 424.371 388.408C424.755 388.408 425.091 388.344 425.379 388.216C425.683 388.072 425.931 387.832 426.123 387.496C426.315 387.16 426.427 386.696 426.459 386.104L427.467 387.064C427.387 387.976 427.163 388.752 426.795 389.392C426.443 390.016 425.947 390.496 425.307 390.832C424.683 391.168 423.907 391.336 422.979 391.336ZM433.074 391L433.074 377.752L436.53 377.752L436.53 383.512L436.482 383.512C436.482 381.656 436.866 380.2 437.634 379.144C438.418 378.088 439.538 377.56 440.994 377.56L441.522 377.56L441.522 381.304L440.514 381.304C439.538 381.304 438.778 381.568 438.234 382.096C437.706 382.624 437.442 383.384 437.442 384.376L437.442 391L433.074 391ZM449.406 391.192C447.966 391.192 446.814 391.016 445.95 390.664C445.102 390.312 444.486 389.728 444.102 388.912C443.718 388.096 443.526 386.992 443.526 385.6L443.55 374.296L447.582 374.296L447.558 385.72C447.558 386.312 447.71 386.768 448.014 387.088C448.334 387.392 448.79 387.544 449.382 387.544L451.206 387.544L451.206 391.192L449.406 391.192ZM441.606 380.92L441.606 377.752L451.206 377.752L451.206 380.92L441.606 380.92ZM461.443 391.48C459.859 391.48 458.499 391.208 457.363 390.664C456.227 390.104 455.291 389.376 454.555 388.48C453.819 387.568 453.275 386.584 452.923 385.528C452.571 384.472 452.395 383.448 452.395 382.456L452.395 381.928C452.395 380.824 452.571 379.744 452.923 378.688C453.291 377.616 453.843 376.648 454.579 375.784C455.331 374.92 456.267 374.232 457.387 373.72C458.507 373.208 459.819 372.952 461.323 372.952C462.923 372.952 464.339 373.256 465.571 373.864C466.819 374.456 467.819 375.296 468.571 376.384C469.323 377.456 469.763 378.704 469.891 380.128L465.427 380.128C465.315 379.52 465.075 378.992 464.707 378.544C464.339 378.096 463.867 377.752 463.291 377.512C462.715 377.256 462.059 377.128 461.323 377.128C460.635 377.128 460.011 377.248 459.451 377.488C458.907 377.728 458.443 378.072 458.059 378.52C457.691 378.952 457.403 379.48 457.195 380.104C457.003 380.728 456.907 381.432 456.907 382.216C456.907 383 457.003 383.704 457.195 384.328C457.403 384.952 457.699 385.488 458.083 385.936C458.483 386.384 458.963 386.728 459.523 386.968C460.083 387.192 460.723 387.304 461.443 387.304C462.563 387.304 463.507 387.032 464.275 386.488C465.059 385.944 465.531 385.216 465.691 384.304L470.155 384.304C470.011 385.616 469.571 386.816 468.835 387.904C468.099 388.992 467.107 389.864 465.859 390.52C464.611 391.16 463.139 391.48 461.443 391.48ZM479.845 391L479.845 387.112L479.125 387.112L479.125 382.96C479.125 382.352 478.981 381.904 478.693 381.616C478.421 381.312 477.965 381.16 477.325 381.16C477.021 381.16 476.573 381.168 475.981 381.184C475.389 381.2 474.765 381.224 474.109 381.256C473.453 381.288 472.853 381.32 472.309 381.352L472.309 377.704C472.693 377.672 473.149 377.64 473.677 377.608C474.205 377.576 474.749 377.552 475.309 377.536C475.885 377.52 476.413 377.512 476.893 377.512C478.253 377.512 479.405 377.712 480.349 378.112C481.309 378.512 482.037 379.112 482.533 379.912C483.045 380.712 483.301 381.728 483.301 382.96L483.301 391L479.845 391ZM475.645 391.336C474.717 391.336 473.893 391.168 473.173 390.832C472.453 390.496 471.885 390.016 471.469 389.392C471.069 388.752 470.869 387.992 470.869 387.112C470.869 386.12 471.133 385.32 471.661 384.712C472.189 384.088 472.917 383.632 473.845 383.344C474.773 383.056 475.837 382.912 477.037 382.912L479.605 382.912L479.605 385.168L477.037 385.168C476.445 385.168 475.989 385.32 475.669 385.624C475.349 385.912 475.189 386.304 475.189 386.8C475.189 387.28 475.349 387.672 475.669 387.976C475.989 388.264 476.445 388.408 477.037 388.408C477.421 388.408 477.757 388.344 478.045 388.216C478.349 388.072 478.597 387.832 478.789 387.496C478.981 387.16 479.093 386.696 479.125 386.104L480.133 387.064C480.053 387.976 479.829 388.752 479.461 389.392C479.109 390.016 478.613 390.496 477.973 390.832C477.349 391.168 476.573 391.336 475.645 391.336ZM485.932 391L485.932 373.48L490.3 373.48L490.3 391L485.932 391ZM484.444 376.648L484.444 373.48L490.3 373.48L490.3 376.648L484.444 376.648ZM493.233 391L493.233 373.48L497.601 373.48L497.601 391L493.233 391ZM491.745 376.648L491.745 373.48L497.601 373.48L497.601 376.648L491.745 376.648Z" fill="#230F0F"/>
</svg>
