<svg width="19" height="19" viewBox="0 0 19 19" fill="none" xmlns="http://www.w3.org/2000/svg"><path fill-rule="evenodd" clip-rule="evenodd" d="M0 8.829V18a1 1 0 00.996 1h9.17a.702.702 0 00.496-1.202l-9.46-9.47a.705.705 0 00-1.202.5zM15.283 0a.709.709 0 01.5 1.205l-3.475 3.47a1.145 1.145 0 00-.342.832v4.767a.705.705 0 01-1.201.5L1.2 1.205A.706.706 0 011.698 0h13.585zm-2.32 19h5.041A1 1 0 0019 18V6.832a.705.705 0 00-1.201-.5l-5.477 5.48a1.144 1.144 0 00-.342.828v5.367a1 1 0 00.982.993z" fill="#9A9AAD"/></svg>