<svg xmlns="http://www.w3.org/2000/svg">
<symbol id="telegram" viewBox="0 0 48 48">
  <path d="M41.4193 7.30899C41.4193 7.30899 45.3046 5.79399 44.9808 9.47328C44.8729 10.9883 43.9016 16.2908 43.1461 22.0262L40.5559 39.0159C40.5559 39.0159 40.3401 41.5048 38.3974 41.9377C36.4547 42.3705 33.5408 40.4227 33.0011 39.9898C32.5694 39.6652 24.9068 34.7955 22.2086 32.4148C21.4531 31.7655 20.5897 30.4669 22.3165 28.9519L33.6487 18.1305C34.9438 16.8319 36.2389 13.8019 30.8426 17.4812L15.7331 27.7616C15.7331 27.7616 14.0063 28.8437 10.7686 27.8698L3.75342 25.7055C3.75342 25.7055 1.16321 24.0823 5.58815 22.459C16.3807 17.3729 29.6555 12.1786 41.4193 7.30899Z" fill="currentColor"/>
</symbol>

<symbol id="github" viewBox="0 0 496 512">
    <path fill="currentColor" d="M165.9 397.4c0 2-2.3 3.6-5.2 3.6-3.3 .3-5.6-1.3-5.6-3.6 0-2 2.3-3.6 5.2-3.6 3-.3 5.6 1.3 5.6 3.6zm-31.1-4.5c-.7 2 1.3 4.3 4.3 4.9 2.6 1 5.6 0 6.2-2s-1.3-4.3-4.3-5.2c-2.6-.7-5.5 .3-6.2 2.3zm44.2-1.7c-2.9 .7-4.9 2.6-4.6 4.9 .3 2 2.9 3.3 5.9 2.6 2.9-.7 4.9-2.6 4.6-4.6-.3-1.9-3-3.2-5.9-2.9zM244.8 8C106.1 8 0 113.3 0 252c0 110.9 69.8 205.8 169.5 239.2 12.8 2.3 17.3-5.6 17.3-12.1 0-6.2-.3-40.4-.3-61.4 0 0-70 15-84.7-29.8 0 0-11.4-29.1-27.8-36.6 0 0-22.9-15.7 1.6-15.4 0 0 24.9 2 38.6 25.8 21.9 38.6 58.6 27.5 72.9 20.9 2.3-16 8.8-27.1 16-33.7-55.9-6.2-112.3-14.3-112.3-110.5 0-27.5 7.6-41.3 23.6-58.9-2.6-6.5-11.1-33.3 2.6-67.9 20.9-6.5 69 27 69 27 20-5.6 41.5-8.5 62.8-8.5s42.8 2.9 62.8 8.5c0 0 48.1-33.6 69-27 13.7 34.7 5.2 61.4 2.6 67.9 16 17.7 25.8 31.5 25.8 58.9 0 96.5-58.9 104.2-114.8 110.5 9.2 7.9 17 22.9 17 46.4 0 33.7-.3 75.4-.3 83.6 0 6.5 4.6 14.4 17.3 12.1C428.2 457.8 496 362.9 496 252 496 113.3 383.5 8 244.8 8zM97.2 352.9c-1.3 1-1 3.3 .7 5.2 1.6 1.6 3.9 2.3 5.2 1 1.3-1 1-3.3-.7-5.2-1.6-1.6-3.9-2.3-5.2-1zm-10.8-8.1c-.7 1.3 .3 2.9 2.3 3.9 1.6 1 3.6 .7 4.3-.7 .7-1.3-.3-2.9-2.3-3.9-2-.6-3.6-.3-4.3 .7zm32.4 35.6c-1.6 1.3-1 4.3 1.3 6.2 2.3 2.3 5.2 2.6 6.5 1 1.3-1.3 .7-4.3-1.3-6.2-2.2-2.3-5.2-2.6-6.5-1zm-11.4-14.7c-1.6 1-1.6 3.6 0 5.9 1.6 2.3 4.3 3.3 5.6 2.3 1.6-1.3 1.6-3.9 0-6.2-1.4-2.3-4-3.3-5.6-2z"/>
</symbol>

<symbol id="logo" viewBox="0 0 32 32">
    <rect width="32" height="32" rx="4" fill="black"/>
    <circle cx="16" cy="16" r="10" fill="white"/>
</symbol>

<symbol id="download" viewBox="0 0 20 20">
    <path d="M17.5 12.5V13.5C17.5 14.9001 17.5 15.6002 17.2275 16.135C16.9878 16.6054 16.6054 16.9878 16.135 17.2275C15.6002 17.5 14.9001 17.5 13.5 17.5H6.5C5.09987 17.5 4.3998 17.5 3.86502 17.2275C3.39462 16.9878 3.01217 16.6054 2.77248 16.135C2.5 15.6002 2.5 14.9001 2.5 13.5V12.5M14.1667 8.33333L10 12.5M10 12.5L5.83333 8.33333M10 12.5V2.5" stroke="currentColor" stroke-width="2" stroke-linecap="round" stroke-linejoin="round" fill="none"/>
</symbol>

<symbol id="next" viewBox="0 0 74 64"><path d="M37.5896 0.25L74.5396 64.25H0.639648L37.5896 0.25Z" fill="currentColor"></path></symbol>

<symbol id="js" viewBox="0 0 56 56" fill="none" >
<path d="M0 56V0H56V56H0Z" fill="currentColor"/>
<path d="M36.6147 41.9176C37.6912 43.666 38.861 45.3414 41.339 45.3414C43.4203 45.3414 44.5123 44.3069 44.5123 42.8758C44.5123 41.1631 43.383 40.5549 41.0932 39.5578L39.8378 39.0227C36.215 37.4858 33.8054 35.56 33.8054 31.4923C33.8054 27.7434 36.6754 24.8905 41.1601 24.8905C44.3536 24.8905 46.6481 25.9965 48.3032 28.8929L44.3925 31.3927C43.5323 29.8558 42.6021 29.2507 41.1601 29.2507C39.6885 29.2507 38.7567 30.1794 38.7567 31.3927C38.7567 32.8922 39.6901 33.4989 41.8445 34.4276L43.0998 34.9627C47.3698 36.7811 49.7778 38.6385 49.7778 42.8136C49.7778 47.3122 46.225 49.7778 41.4556 49.7778C36.7905 49.7778 34.1414 47.4367 32.6667 44.5387L36.6147 41.9176ZM18.5921 42.0451C19.3792 43.4545 20.5754 44.5387 22.2958 44.5387C23.9416 44.5387 24.889 43.8885 24.889 41.3607V24.8889H30.0736V42.1571C30.0736 47.3947 27.0356 49.7778 22.5992 49.7778C18.5905 49.7778 15.6972 47.0618 14.5181 44.5387L18.5921 42.0451Z" fill="white"/>
</symbol>

<symbol id="css" viewBox="14 0 197 224.7"><path d="M14 2.7c0 1.5 3.8 45.5 8.5 97.8 4.6 52.2 8.6 96.5 8.7 98.4l.3 3.4L72 213.5l40.4 11.2 8.1-2.2c4.4-1.2 22.5-6.2 40.3-11.1 27.6-7.6 32.3-9.2 32.7-10.9C194 198.1 211 5.4 211 2.2V0H14zm160.7 42.5c-.4 2.4-3 30.8-5.8 63.3-2.9 32.4-5.3 59.2-5.5 59.4-.4.5-49.5 14.1-50.9 14.1-1 0-27.8-7.3-46.1-12.5l-5.1-1.5-1.2-13.2c-.6-7.3-1.4-16.1-1.8-19.6l-.6-6.2h12.5c14.1 0 13.7-.2 13.8 8.5 0 2.2.3 5.6.6 7.6l.6 3.6 13.7 3.6 13.6 3.6 13.5-3.6c7.4-2 13.6-3.7 13.6-3.7.1-.1.7-6 1.3-13.1.6-7.2 1.3-14.2 1.6-15.8l.5-2.7H57.2l-.5-2.3c-.3-1.2-.9-7-1.3-13L54.7 91h90.1l.6-6.8c.4-3.7 1-9.4 1.3-12.6.4-4.1.3-5.7-.5-5.2-.6.3-21.9.3-47.5-.1l-46.5-.6-.6-7.1c-.4-3.9-.9-9.5-1.2-12.4l-.6-5.2h125.4z" fill="currentColor"/></symbol>

<symbol id="html" viewBox="74.634 0 362.733 512" fill="currentColor"><path d="M107.644 470.877L74.634 100.62h362.733l-33.046 370.199L255.778 512z"/><path d="M256 480.522l120.03-33.276 28.24-316.352H256z"/><g fill="#fff"><path d="M256 268.217h-60.09l-4.15-46.501H256v-45.411H142.132l1.087 12.183 11.161 125.139H256zM256 386.153l-.198.053-50.575-13.656-3.233-36.217h-45.585l6.362 71.301 93.02 25.823.209-.058z"/></g><path d="M108.382 0h23.077v22.8h21.11V0h23.078v69.044H152.57v-23.12h-21.11v23.12h-23.076V0h-.002zM205.994 22.896h-20.315V0h63.72v22.896h-20.325v46.148h-23.078l-.002-46.148zM259.511 0h24.062l14.802 24.26L313.163 0h24.072v69.044h-22.982V34.822l-15.877 24.549h-.396l-15.889-24.549v34.222h-22.579V0zM348.72 0h23.084v46.222h32.453v22.822H348.72V0z"/><g fill="#fff"><path d="M255.844 268.217v45.41h55.917l-5.271 58.894-50.646 13.67v47.244l93.093-25.801.683-7.672 10.671-119.551 1.108-12.194h-12.237zM255.844 176.305V221.716h109.687l.911-10.207 2.069-23.021 1.086-12.183z"/></g></symbol>

<symbol id="react" viewBox="175.7 78 490.6 436.9" ><g fill="cuentColor"><path d="m666.3 296.5c0-32.5-40.7-63.3-103.1-82.4 14.4-63.6 8-114.2-20.2-130.4-6.5-3.8-14.1-5.6-22.4-5.6v22.3c4.6 0 8.3.9 11.4 2.6 13.6 7.8 19.5 37.5 14.9 75.7-1.1 9.4-2.9 19.3-5.1 29.4-19.6-4.8-41-8.5-63.5-10.9-13.5-18.5-27.5-35.3-41.6-50 32.6-30.3 63.2-46.9 84-46.9v-22.3c-27.5 0-63.5 19.6-99.9 53.6-36.4-33.8-72.4-53.2-99.9-53.2v22.3c20.7 0 51.4 16.5 84 46.6-14 14.7-28 31.4-41.3 49.9-22.6 2.4-44 6.1-63.6 11-2.3-10-4-19.7-5.2-29-4.7-38.2 1.1-67.9 14.6-75.8 3-1.8 6.9-2.6 11.5-2.6v-22.3c-8.4 0-16 1.8-22.6 5.6-28.1 16.2-34.4 66.7-19.9 130.1-62.2 19.2-102.7 49.9-102.7 82.3 0 32.5 40.7 63.3 103.1 82.4-14.4 63.6-8 114.2 20.2 130.4 6.5 3.8 14.1 5.6 22.5 5.6 27.5 0 63.5-19.6 99.9-53.6 36.4 33.8 72.4 53.2 99.9 53.2 8.4 0 16-1.8 22.6-5.6 28.1-16.2 34.4-66.7 19.9-130.1 62-19.1 102.5-49.9 102.5-82.3zm-130.2-66.7c-3.7 12.9-8.3 26.2-13.5 39.5-4.1-8-8.4-16-13.1-24-4.6-8-9.5-15.8-14.4-23.4 14.2 2.1 27.9 4.7 41 7.9zm-45.8 106.5c-7.8 13.5-15.8 26.3-24.1 38.2-14.9 1.3-30 2-45.2 2-15.1 0-30.2-.7-45-1.9-8.3-11.9-16.4-24.6-24.2-38-7.6-13.1-14.5-26.4-20.8-39.8 6.2-13.4 13.2-26.8 20.7-39.9 7.8-13.5 15.8-26.3 24.1-38.2 14.9-1.3 30-2 45.2-2 15.1 0 30.2.7 45 1.9 8.3 11.9 16.4 24.6 24.2 38 7.6 13.1 14.5 26.4 20.8 39.8-6.3 13.4-13.2 26.8-20.7 39.9zm32.3-13c5.4 13.4 10 26.8 13.8 39.8-13.1 3.2-26.9 5.9-41.2 8 4.9-7.7 9.8-15.6 14.4-23.7 4.6-8 8.9-16.1 13-24.1zm-101.4 106.7c-9.3-9.6-18.6-20.3-27.8-32 9 .4 18.2.7 27.5.7 9.4 0 18.7-.2 27.8-.7-9 11.7-18.3 22.4-27.5 32zm-74.4-58.9c-14.2-2.1-27.9-4.7-41-7.9 3.7-12.9 8.3-26.2 13.5-39.5 4.1 8 8.4 16 13.1 24s9.5 15.8 14.4 23.4zm73.9-208.1c9.3 9.6 18.6 20.3 27.8 32-9-.4-18.2-.7-27.5-.7-9.4 0-18.7.2-27.8.7 9-11.7 18.3-22.4 27.5-32zm-74 58.9c-4.9 7.7-9.8 15.6-14.4 23.7-4.6 8-8.9 16-13 24-5.4-13.4-10-26.8-13.8-39.8 13.1-3.1 26.9-5.8 41.2-7.9zm-90.5 125.2c-35.4-15.1-58.3-34.9-58.3-50.6s22.9-35.6 58.3-50.6c8.6-3.7 18-7 27.7-10.1 5.7 19.6 13.2 40 22.5 60.9-9.2 20.8-16.6 41.1-22.2 60.6-9.9-3.1-19.3-6.5-28-10.2zm53.8 142.9c-13.6-7.8-19.5-37.5-14.9-75.7 1.1-9.4 2.9-19.3 5.1-29.4 19.6 4.8 41 8.5 63.5 10.9 13.5 18.5 27.5 35.3 41.6 50-32.6 30.3-63.2 46.9-84 46.9-4.5-.1-8.3-1-11.3-2.7zm237.2-76.2c4.7 38.2-1.1 67.9-14.6 75.8-3 1.8-6.9 2.6-11.5 2.6-20.7 0-51.4-16.5-84-46.6 14-14.7 28-31.4 41.3-49.9 22.6-2.4 44-6.1 63.6-11 2.3 10.1 4.1 19.8 5.2 29.1zm38.5-66.7c-8.6 3.7-18 7-27.7 10.1-5.7-19.6-13.2-40-22.5-60.9 9.2-20.8 16.6-41.1 22.2-60.6 9.9 3.1 19.3 6.5 28.1 10.2 35.4 15.1 58.3 34.9 58.3 50.6-.1 15.7-23 35.6-58.4 50.6z"/><circle cx="420.9" cy="296.5" r="45.7"/></g></symbol>

<symbol id="vue" fill="curentColor"  viewBox="0 0 24 24" >
    <path d="m12 12.765 5.592-9.437h-3.276L12 7.33v.002L9.688 3.328h-3.28z"/><path d="M18.461 3.332 12 14.235 5.539 3.332H1.992L12 20.672l10.008-17.34z"/>
</symbol>

<symbol id="angular" viewBox="0 0 256 272" preserveAspectRatio="xMidYMid">
    <path d="M.1 45.522L125.908.697l129.196 44.028-20.919 166.45-108.277 59.966-106.583-59.169L.1 45.522z" fill="currentColor"/><path d="M255.104 44.725L125.908.697v270.444l108.277-59.866 20.919-166.55z" fill="currentColor"/>
    <path d="M126.107 32.274L47.714 206.693l29.285-.498 15.739-39.347h70.325l17.233 39.845 27.99.498-82.179-174.917zm.2 55.882l26.496 55.383h-49.806l23.31-55.383z" fill="#FFF"/>
</symbol>

<symbol id="veeamSoftware" viewBox="0 0 100 30" fill="none">
    <path d="M8.46718 0.028021C7.57553 0.028021 6.7169 0.382384 6.08744 1.01125L0.98572 6.10009C0.35526 6.72896 0 7.58442 0 8.47382V30.0001L91.5869 29.9462C92.4785 29.9462 93.3371 29.5918 93.9666 28.9629L99.0113 23.931C99.6417 23.3021 99.997 22.4467 99.997 21.5573L100 0.0270233L8.46718 0.028021Z" fill="currentColor"></path>
    <path opacity="0.2" d="M0 10.6598L0.0100075 29.992L34.1749 29.972C34.1749 29.972 37.9727 30.1457 40.9259 29.4939C46.3528 28.2971 49.5842 26.0032 53.6241 21.9744C60.4391 15.1767 75.7013 0 75.7013 0L42.2869 0.00399348L19.2681 22.8698C19.2681 22.8698 17.797 24.5099 15.8085 24.5109C14.3215 24.5119 13.4708 23.912 12.362 22.8898C12.0378 22.5903 0 10.6688 0 10.6598Z" fill="white"></path>
    <path d="M14.4966 22.2889L7.58752 7.89778H10.7018C10.7018 7.89778 15.6394 18.1992 15.7605 18.7213H15.8205C15.9446 18.1992 20.8792 7.89778 20.8792 7.89778H24.0235L17.1145 22.2889H14.4966Z" fill="white"></path>
    <path d="M37.4043 16.1968H26.2151C26.6174 18.5336 28.3407 20.009 30.5623 20.009C32.3826 20.009 33.5825 19.3003 34.1989 17.9796H37.095C36.2304 20.7147 33.7366 22.5903 30.5583 22.5903C26.3652 22.5903 23.284 19.5478 23.284 15.0868C23.284 10.6598 26.3042 7.58334 30.5583 7.58334C34.35 7.58334 37.4633 10.8135 37.4633 15.0868C37.4653 15.5181 37.4653 15.7656 37.4043 16.1968ZM26.2451 13.859H34.5382C34.354 11.8896 32.7519 10.1707 30.5623 10.1707C28.3407 10.1677 26.6744 11.6161 26.2451 13.859Z" fill="white"></path>
    <path d="M52.7545 16.1968H41.5643C41.9666 18.5336 43.6899 20.009 45.9115 20.009C47.7318 20.009 48.9317 19.3003 49.5481 17.9796H52.4443C51.5796 20.7147 49.0858 22.5903 45.9075 22.5903C41.7144 22.5903 38.6332 19.5478 38.6332 15.0868C38.6332 10.6598 41.6534 7.58334 45.9075 7.58334C49.6993 7.58334 52.8125 10.8135 52.8125 15.0868C52.8145 15.5181 52.8145 15.7656 52.7545 16.1968ZM41.5953 13.859H49.8884C49.7043 11.8896 48.1021 10.1707 45.9125 10.1707C43.6899 10.1677 42.0277 11.6161 41.5953 13.859Z" fill="white"></path>
    <path d="M68.4459 15.0898V22.2859H65.9491L65.7009 20.0419C64.5911 21.7039 62.6507 22.5933 60.8904 22.5933C56.9446 22.5933 53.9544 19.457 53.9544 15.0898C53.9544 10.7866 57.1587 7.58633 61.2587 7.58633C65.0235 7.58633 68.4459 10.2915 68.4459 15.0898ZM65.6059 15.0898C65.6059 11.9235 63.5113 10.1717 61.2587 10.1717C58.7919 10.1717 56.7904 12.1411 56.7904 15.0898C56.7904 18.0425 58.6408 20.008 61.2587 20.008C63.4813 20.008 65.6059 18.1623 65.6059 15.0898Z" fill="white"></path>
    <path d="M70.3564 22.2849V13.7692C70.3564 10.1717 72.669 7.59035 76.2767 7.59035C79.1728 7.59035 80.7149 9.52686 80.9331 10.2046H80.9931C81.2073 9.52886 82.7494 7.59035 85.6495 7.59035C89.2561 7.59035 91.5698 10.1717 91.5698 13.7692V22.2859H88.7338V13.9838C88.7338 11.647 87.685 10.2326 85.5595 10.2326C83.4309 10.2326 82.3851 11.647 82.3851 14.0447V22.3168H79.5491V14.0447C79.5491 11.647 78.5003 10.2326 76.3747 10.2326C74.2492 10.2326 73.2004 11.647 73.2004 13.9838V22.2859L70.3564 22.2849Z" fill="white"></path>
</symbol>

<symbol id="webwork" viewBox="0 0 52 61" fill="none">
    <path d="M48.0835 24.4558V40.9914L25.9951 28.2641L3.85749 40.9914V24.4558L0 22.1953V45.4877L1.9656 46.6179L25.9951 32.7359L49.9754 46.6179L51.941 45.4877V22.1953L48.0835 24.4558Z" fill="currentColor"/>
    <path d="M25.9951 0.5L0 15.4631V17.699L10.2948 23.6695V32.8342L14.1523 30.5983V25.93L18.2064 28.2641L22.0639 26.0283L16.0442 22.5393L23.9558 17.9693V22.6376L25.9214 23.7924L27.887 22.6867V18.0184L35.7985 22.5885L31.4496 25.07L29.7789 26.0283L33.6364 28.2641L37.6904 25.93V30.5983L41.5479 32.8342V23.6695L51.8428 17.699V15.4631L25.9951 0.5ZM24.0295 13.5221L12.2604 20.3526L5.8231 16.6179L24.0295 6.12654V13.5221ZM39.6806 20.3526L27.9115 13.5221V6.12654L46.1179 16.6179L39.6806 20.3526Z" fill="currentColor"/>
    <path d="M42.2599 46.5693L27.911 54.874V47.4784L35.8717 42.9084L31.9651 40.6725L27.911 43.0067V38.3138L25.9946 37.1836L24.029 38.2892V43.0067L19.9749 40.6234L16.0683 42.8593L24.029 47.4784V54.874L9.68007 46.5693L5.77344 48.8052L25.9946 60.5005L46.1666 48.8052L42.2599 46.5693Z" fill="currentColor"/>
</symbol>


<symbol id="brainRocket" viewBox="0 0 155 25" fill="none"><div xmlns="" id="in-page-channel-node-id" data-channel-name="in_page_channel_U3Tkla"/>
<path d="M49.3708 18.1268V20.3481C49.3708 21.9633 49.5436 22.3965 49.7189 22.7421V22.8848H43.5736C43.486 22.7421 43.3708 22.3364 43.3708 21.3848V19.6243C43.3708 16.8547 42.3616 15.5851 39.3615 15.5851H31.6286V22.8848H25.6836V1.41879H40.1403C48.3065 1.41879 49.2306 4.822 49.2306 7.16092V7.44891C49.2306 10.1334 47.385 11.9515 44.7005 12.555C47.6104 13.2211 49.3708 14.9816 49.3708 18.1268ZM31.6261 10.7119H39.9075C42.3315 10.7119 42.9951 9.67264 42.9951 8.43306V8.37547C42.9951 7.16344 42.3315 6.15424 39.9075 6.15424H31.6261V10.7119Z" fill="currentColor"/>
<path d="M64.4045 1.07321C74.4439 1.07321 77.3012 6.98814 77.3012 11.6635V12.5299C77.3012 17.1477 74.4439 23.2354 64.4045 23.2354H63.1349C53.0931 23.2354 50.2383 17.1477 50.2383 12.5299V11.6635C50.2383 6.99065 53.0956 1.07321 63.1349 1.07321H64.4045ZM63.7685 5.97895C57.7659 5.97895 56.4111 9.23942 56.4111 11.8939V12.297C56.4111 14.8939 57.8536 18.2996 63.7685 18.2996C69.7986 18.2996 71.1258 14.8964 71.1258 12.297V11.8939C71.1258 9.23942 69.8286 5.97895 63.7685 5.97895Z" fill="currentColor"/>
<path d="M0 1.4213H15.6688C21.8141 1.4213 23.3442 4.10581 23.3442 6.49982V6.81784C23.3442 9.50235 21.0052 10.8571 19.39 11.06C21.8141 11.4055 24.4109 12.9356 24.4109 16.3689V16.6869C24.4109 19.6018 22.6505 22.8898 15.7539 22.8898H0V1.4213ZM5.94247 5.89129V9.73023H14.7998C16.5878 9.73023 17.1362 8.86378 17.1362 7.85459V7.797C17.1362 6.75775 16.5603 5.89129 14.7998 5.89129H5.94247ZM5.94247 13.9423V18.1844H15.2606C17.3666 18.1844 17.9451 17.1176 17.9451 16.0208V15.9056C17.9451 14.8388 17.3691 13.9448 15.2606 13.9448H5.94247V13.9423Z" fill="currentColor"/>
<path d="M83.6211 6.81534H87.9859C88.9876 6.81534 89.7564 7.03321 90.2898 7.46644C90.8232 7.89967 91.0886 8.48314 91.0886 9.21687C91.0886 9.67264 90.9634 10.0833 90.713 10.4439C90.4626 10.807 90.1295 11.0675 89.7188 11.2278C90.2747 11.3605 90.713 11.6309 91.0335 12.0316C91.3566 12.4348 91.5168 12.9381 91.5168 13.5466C91.5168 14.388 91.2364 15.0667 90.6779 15.5851C90.1195 16.1034 89.3908 16.3614 88.4968 16.3614H83.6211V6.81534V6.81534ZM85.2588 8.17012V10.7995H87.5427C88.1887 10.7995 88.662 10.6994 88.965 10.499C89.2706 10.2987 89.4233 9.96063 89.4233 9.48733C89.4233 8.95143 89.2631 8.59833 88.945 8.42804C88.627 8.25776 88.1762 8.17263 87.5953 8.17263H85.2588V8.17012ZM85.2588 12.0066V14.9966H87.7706C88.4141 14.9966 88.92 14.8889 89.2881 14.6735C89.6562 14.4582 89.839 14.07 89.839 13.5066C89.839 13.1935 89.7839 12.9331 89.6712 12.7228C89.5585 12.5124 89.3983 12.3597 89.1879 12.2595C88.9776 12.1618 88.7597 12.0942 88.5368 12.0591C88.314 12.0241 88.0485 12.0066 87.7455 12.0066H85.2588V12.0066Z" fill="currentColor"/>
<path d="M96.5177 9.31202V10.7745C96.2498 10.7469 96.0695 10.7344 95.9793 10.7344C94.6446 10.7344 93.9785 11.5984 93.9785 13.3238V16.3689H92.4609V9.44724H93.8983V10.8296C94.3917 9.80285 95.1655 9.28699 96.2223 9.28699L96.5177 9.31202Z" fill="currentColor"/>
<path d="M96.9529 11.5783C97.1131 10.0132 98.1248 9.2319 99.9879 9.2319C100.857 9.2319 101.548 9.40218 102.061 9.74275C102.577 10.0833 102.833 10.6092 102.833 11.3254V14.8388C102.833 15.0341 102.858 15.1694 102.905 15.242C102.955 15.3146 103.051 15.3497 103.193 15.3497C103.301 15.3497 103.416 15.3397 103.541 15.3221V16.3939C103.148 16.4916 102.815 16.5417 102.547 16.5417C101.894 16.5417 101.518 16.2637 101.42 15.7103C100.837 16.2662 100.028 16.5417 98.9888 16.5417C98.2726 16.5417 97.7041 16.3564 97.2834 15.9857C96.8627 15.6151 96.6523 15.1118 96.6523 14.4782C96.6523 14.2829 96.6749 14.0976 96.72 13.9273C96.765 13.757 96.8176 13.6092 96.8752 13.484C96.9328 13.3588 97.028 13.2436 97.1582 13.136C97.2884 13.0283 97.3961 12.9381 97.4812 12.868C97.5664 12.7979 97.7041 12.7303 97.8969 12.6677C98.0898 12.6051 98.2325 12.5575 98.3277 12.5274C98.4228 12.4974 98.5856 12.4623 98.8185 12.4273C99.0514 12.3922 99.2066 12.3672 99.2818 12.3546C99.3569 12.3421 99.5172 12.3221 99.7576 12.2945C100.303 12.2219 100.674 12.1618 100.872 12.1142C101.07 12.0642 101.202 11.9915 101.275 11.8939C101.338 11.8212 101.368 11.656 101.368 11.398C101.368 10.7019 100.892 10.3513 99.9454 10.3513C99.4445 10.3513 99.0764 10.4464 98.8435 10.6318C98.6106 10.8196 98.4629 11.1376 98.4003 11.5834H96.9529V11.5783ZM101.358 12.893C101.24 12.9556 101.107 13.0107 100.955 13.0608C100.802 13.1109 100.679 13.141 100.586 13.156C100.491 13.1685 100.344 13.1885 100.143 13.2161C99.9429 13.2436 99.8102 13.2612 99.7475 13.2712C99.5597 13.2987 99.412 13.3238 99.3043 13.3438C99.1966 13.3663 99.0639 13.4039 98.9086 13.459C98.7509 13.5116 98.6307 13.5767 98.5455 13.6543C98.4604 13.7294 98.3852 13.8346 98.3251 13.9623C98.2625 14.0926 98.23 14.2453 98.23 14.4256C98.23 14.7562 98.3402 15.0116 98.5605 15.1894C98.7809 15.3672 99.0864 15.4573 99.4796 15.4573C100.161 15.4573 100.684 15.2745 101.05 14.9064C101.255 14.7011 101.358 14.3029 101.358 13.7119V12.893V12.893Z" fill="currentColor"/>
<path d="M105.753 8.27779H104.223V6.77527H105.753V8.27779ZM105.753 16.3664H104.223V9.44474H105.753V16.3664Z" fill="currentColor"/>
<path d="M108.469 9.44474V10.464C109.025 9.66011 109.789 9.25693 110.766 9.25693C111.555 9.25693 112.143 9.47229 112.531 9.90051C112.919 10.3287 113.115 10.9473 113.115 11.7511V16.3638H111.585V12.3396C111.585 12.0616 111.572 11.8338 111.545 11.6485C111.517 11.4656 111.462 11.2803 111.377 11.0925C111.292 10.9047 111.156 10.7645 110.969 10.6693C110.781 10.5741 110.538 10.5291 110.242 10.5291C109.113 10.5291 108.55 11.2303 108.55 12.6351V16.3638H107.02V9.44225H108.469V9.44474Z" fill="currentColor"/>
<path d="M114.52 6.81534H119.045C119.994 6.81534 120.768 7.0282 121.369 7.45141C121.97 7.87713 122.268 8.54825 122.268 9.4698C122.268 10.0433 122.13 10.5316 121.852 10.9373C121.574 11.3429 121.186 11.6359 120.685 11.8162C120.918 11.8713 121.118 11.9515 121.288 12.0566C121.459 12.1643 121.591 12.2795 121.684 12.4047C121.779 12.5299 121.857 12.6902 121.919 12.888C121.982 13.0859 122.025 13.2561 122.047 13.4039C122.07 13.5516 122.09 13.747 122.107 13.9874C122.115 14.05 122.127 14.1702 122.14 14.3505C122.152 14.5283 122.162 14.6485 122.167 14.7061C122.172 14.7637 122.18 14.8638 122.195 15.0066C122.207 15.1493 122.22 15.2495 122.227 15.3096C122.237 15.3672 122.252 15.4523 122.275 15.565C122.298 15.6777 122.318 15.7629 122.335 15.8204C122.353 15.878 122.375 15.9457 122.403 16.0208C122.43 16.0984 122.46 16.161 122.498 16.2161C122.533 16.2712 122.573 16.3188 122.618 16.3639H120.82C120.793 16.3288 120.768 16.2862 120.745 16.2362C120.722 16.1861 120.702 16.1335 120.685 16.0759C120.667 16.0183 120.652 15.9632 120.645 15.9156C120.635 15.8655 120.625 15.8004 120.612 15.7153C120.6 15.6301 120.59 15.56 120.585 15.5074C120.58 15.4523 120.572 15.3722 120.565 15.2645C120.557 15.1568 120.55 15.0767 120.545 15.0241C120.54 14.9715 120.535 14.8764 120.525 14.7436C120.515 14.6109 120.512 14.5158 120.512 14.4632C120.467 13.6844 120.304 13.151 120.021 12.8605C119.738 12.57 119.205 12.4248 118.416 12.4248H116.187V16.3689H114.522V6.81534H114.52ZM116.185 8.18514V11.1752H118.401C118.724 11.1752 118.997 11.1576 119.22 11.1226C119.443 11.0875 119.671 11.0224 119.899 10.9272C120.126 10.8321 120.302 10.6793 120.422 10.464C120.542 10.2486 120.602 9.97565 120.602 9.6451C120.602 9.34209 120.55 9.08916 120.442 8.88632C120.334 8.68598 120.179 8.53573 119.979 8.43807C119.778 8.34041 119.57 8.2728 119.36 8.23774C119.15 8.20268 118.902 8.18514 118.614 8.18514H116.185V8.18514Z" fill="currentColor"/>
<path d="M126.596 9.24442C127.653 9.24442 128.494 9.57498 129.12 10.2361C129.746 10.8972 130.062 11.7887 130.062 12.9056C130.062 14.0324 129.751 14.9265 129.128 15.5876C128.504 16.2487 127.663 16.5792 126.596 16.5792C125.512 16.5792 124.653 16.2487 124.017 15.5876C123.381 14.9265 123.062 14.0324 123.062 12.9056C123.062 11.7887 123.383 10.8972 124.022 10.2361C124.663 9.57498 125.522 9.24442 126.596 9.24442ZM127.998 11.1025C127.653 10.6693 127.177 10.4514 126.568 10.4514C125.96 10.4514 125.482 10.6718 125.131 11.1075C124.78 11.5458 124.608 12.1443 124.608 12.9056C124.608 13.6844 124.783 14.2904 125.131 14.7286C125.479 15.1669 125.962 15.3872 126.581 15.3872C127.182 15.3872 127.653 15.1669 127.998 14.7236C128.344 14.2804 128.514 13.6718 128.514 12.893C128.517 12.1318 128.344 11.5358 127.998 11.1025Z" fill="currentColor"/>
<path d="M137.262 13.7495C137.154 14.5984 136.813 15.2771 136.24 15.7804C135.666 16.2862 134.945 16.5392 134.079 16.5392C133.039 16.5392 132.213 16.2111 131.595 15.5525C130.976 14.8964 130.668 14.035 130.668 12.9707C130.668 11.8263 130.978 10.9172 131.602 10.2411C132.223 9.56748 133.064 9.2294 134.119 9.2294C135.005 9.2294 135.719 9.45227 136.26 9.90052C136.801 10.3463 137.116 10.9698 137.206 11.7637H135.689C135.599 11.3254 135.421 10.9899 135.15 10.757C134.883 10.5241 134.542 10.4089 134.129 10.4089C133.538 10.4089 133.072 10.6317 132.731 11.0725C132.391 11.5157 132.221 12.1218 132.221 12.8905C132.221 13.6593 132.383 14.2578 132.711 14.6886C133.037 15.1168 133.493 15.3321 134.074 15.3321C134.529 15.3321 134.903 15.1969 135.196 14.924C135.486 14.651 135.671 14.2603 135.754 13.7495H137.262Z" fill="currentColor"/>
<path d="M144.235 9.44475L141.576 11.979L144.476 16.3664H142.61L140.502 13.0258L139.588 13.8847V16.3664H138.098V6.81534H139.588V12.1944L142.355 9.44475H144.235Z" fill="currentColor"/>
<path d="M150.764 14.2052C150.594 14.9565 150.226 15.5425 149.658 15.9632C149.089 16.3839 148.41 16.5942 147.622 16.5942C146.575 16.5942 145.744 16.2562 145.13 15.5825C144.516 14.9064 144.211 14.0425 144.211 12.9882C144.211 11.9064 144.526 11.0124 145.158 10.3062C145.789 9.60001 146.592 9.24692 147.569 9.24692C148.581 9.24692 149.382 9.5925 149.973 10.2862C150.564 10.9798 150.86 11.9239 150.86 13.1234V13.2837H145.744C145.761 13.9799 145.936 14.5208 146.267 14.8989C146.597 15.2795 147.058 15.4699 147.649 15.4699C148.07 15.4699 148.413 15.3697 148.676 15.1694C148.939 14.969 149.147 14.6485 149.299 14.2102H150.764V14.2052ZM149.33 12.262C149.284 11.681 149.104 11.2227 148.786 10.8872C148.468 10.5516 148.06 10.3838 147.557 10.3838C147.053 10.3838 146.65 10.5441 146.342 10.8671C146.034 11.1902 145.844 11.6534 145.771 12.262H149.33Z" fill="currentColor"/>
<path d="M155 9.44476V10.5591H153.602V14.2078C153.602 14.4231 153.607 14.5709 153.615 14.656C153.623 14.7411 153.65 14.8363 153.695 14.9365C153.74 15.0392 153.818 15.1093 153.931 15.1443C154.043 15.1794 154.196 15.1969 154.394 15.1969C154.644 15.1969 154.845 15.1869 154.997 15.1694V16.3764C154.692 16.4115 154.349 16.429 153.963 16.429C153.695 16.429 153.46 16.4089 153.259 16.3689C153.059 16.3288 152.889 16.2812 152.756 16.2286C152.621 16.1736 152.511 16.0834 152.42 15.9532C152.33 15.823 152.263 15.7153 152.213 15.6301C152.163 15.545 152.127 15.3947 152.105 15.1819C152.082 14.9665 152.072 14.8038 152.072 14.6936V14.1101V14.0224V13.9423V13.8547V10.5566H150.918V9.44227H152.072V7.36377H153.602V9.44227H155V9.44476Z" fill="currentColor"/>
</symbol>

<symbol id ="quote" viewBox="0 0 14 10" fill="none" >
<path d="M7.85892 9.05666V7.39399C7.85892 7.16839 8.09607 6.98567 8.38846 6.98567C9.43181 6.98567 9.99941 6.16057 10.0782 4.53181H8.38846C8.09611 4.53181 7.85892 4.34883 7.85892 4.12349V0.612683C7.85892 0.387168 8.09607 0.204444 8.38846 0.204444H12.8935C13.1858 0.204444 13.4231 0.387368 13.4231 0.612683V4.12352C13.4231 4.90423 13.3209 5.62065 13.1202 6.25337C12.9141 6.902 12.5977 7.46907 12.18 7.939C11.7504 8.42191 11.2125 8.80086 10.5823 9.06477C9.94736 9.33037 9.20924 9.46516 8.38824 9.46516C8.09611 9.46499 7.85892 9.28209 7.85892 9.05666ZM1.02943 6.98553C0.73708 6.98553 0.5 7.16839 0.5 7.39368V9.05669C0.5 9.28209 0.73708 9.46485 1.02943 9.46485C1.85003 9.46485 2.58852 9.33002 3.22309 9.06446C3.85362 8.80058 4.39138 8.42194 4.82093 7.93868C5.2389 7.46876 5.55527 6.90166 5.7614 6.25272C5.96217 5.61999 6.06416 4.90354 6.06416 4.12317V0.61234C6.06416 0.386826 5.82686 0.204102 5.53462 0.204102H1.02943C0.73708 0.204102 0.5 0.386997 0.5 0.61234V4.12317C0.5 4.34866 0.73708 4.5315 1.02943 4.5315H2.69543C2.61762 6.1604 2.0582 6.98553 1.02943 6.98553Z" fill="currentColor"/>
</symbol>

</svg>