<svg xmlns="http://www.w3.org/2000/svg">
<symbol id="telegram" viewBox="0 0 48 48">
  <path d="M41.4193 7.30899C41.4193 7.30899 45.3046 5.79399 44.9808 9.47328C44.8729 10.9883 43.9016 16.2908 43.1461 22.0262L40.5559 39.0159C40.5559 39.0159 40.3401 41.5048 38.3974 41.9377C36.4547 42.3705 33.5408 40.4227 33.0011 39.9898C32.5694 39.6652 24.9068 34.7955 22.2086 32.4148C21.4531 31.7655 20.5897 30.4669 22.3165 28.9519L33.6487 18.1305C34.9438 16.8319 36.2389 13.8019 30.8426 17.4812L15.7331 27.7616C15.7331 27.7616 14.0063 28.8437 10.7686 27.8698L3.75342 25.7055C3.75342 25.7055 1.16321 24.0823 5.58815 22.459C16.3807 17.3729 29.6555 12.1786 41.4193 7.30899Z" fill="currentColor"/>
</symbol>

<symbol id="github" viewBox="0 0 496 512">
    <path fill="currentColor" d="M165.9 397.4c0 2-2.3 3.6-5.2 3.6-3.3 .3-5.6-1.3-5.6-3.6 0-2 2.3-3.6 5.2-3.6 3-.3 5.6 1.3 5.6 3.6zm-31.1-4.5c-.7 2 1.3 4.3 4.3 4.9 2.6 1 5.6 0 6.2-2s-1.3-4.3-4.3-5.2c-2.6-.7-5.5 .3-6.2 2.3zm44.2-1.7c-2.9 .7-4.9 2.6-4.6 4.9 .3 2 2.9 3.3 5.9 2.6 2.9-.7 4.9-2.6 4.6-4.6-.3-1.9-3-3.2-5.9-2.9zM244.8 8C106.1 8 0 113.3 0 252c0 110.9 69.8 205.8 169.5 239.2 12.8 2.3 17.3-5.6 17.3-12.1 0-6.2-.3-40.4-.3-61.4 0 0-70 15-84.7-29.8 0 0-11.4-29.1-27.8-36.6 0 0-22.9-15.7 1.6-15.4 0 0 24.9 2 38.6 25.8 21.9 38.6 58.6 27.5 72.9 20.9 2.3-16 8.8-27.1 16-33.7-55.9-6.2-112.3-14.3-112.3-110.5 0-27.5 7.6-41.3 23.6-58.9-2.6-6.5-11.1-33.3 2.6-67.9 20.9-6.5 69 27 69 27 20-5.6 41.5-8.5 62.8-8.5s42.8 2.9 62.8 8.5c0 0 48.1-33.6 69-27 13.7 34.7 5.2 61.4 2.6 67.9 16 17.7 25.8 31.5 25.8 58.9 0 96.5-58.9 104.2-114.8 110.5 9.2 7.9 17 22.9 17 46.4 0 33.7-.3 75.4-.3 83.6 0 6.5 4.6 14.4 17.3 12.1C428.2 457.8 496 362.9 496 252 496 113.3 383.5 8 244.8 8zM97.2 352.9c-1.3 1-1 3.3 .7 5.2 1.6 1.6 3.9 2.3 5.2 1 1.3-1 1-3.3-.7-5.2-1.6-1.6-3.9-2.3-5.2-1zm-10.8-8.1c-.7 1.3 .3 2.9 2.3 3.9 1.6 1 3.6 .7 4.3-.7 .7-1.3-.3-2.9-2.3-3.9-2-.6-3.6-.3-4.3 .7zm32.4 35.6c-1.6 1.3-1 4.3 1.3 6.2 2.3 2.3 5.2 2.6 6.5 1 1.3-1.3 .7-4.3-1.3-6.2-2.2-2.3-5.2-2.6-6.5-1zm-11.4-14.7c-1.6 1-1.6 3.6 0 5.9 1.6 2.3 4.3 3.3 5.6 2.3 1.6-1.3 1.6-3.9 0-6.2-1.4-2.3-4-3.3-5.6-2z"/>
</symbol>

<symbol id="logo" viewBox="0 0 40 40">
    <path d="M31.5294 14.2118C31.5294 18.8819 28.7623 22.9082 24.7793 24.7351C26.4612 23.3496 27.5322 21.248 27.5322 18.896C27.5322 14.7642 24.2259 11.4042 20.112 11.3205C20.0574 11.3167 20.0075 11.3167 19.9529 11.3167C19.8983 11.3167 19.8485 11.3167 19.7939 11.3205C18.2673 11.4033 17.0588 12.6663 17.0588 14.2108V28.6814C17.0588 33.4748 13.1699 37.3638 8.37646 37.3638V14.2118C8.37646 7.81928 13.5605 2.63528 19.9529 2.63528C26.3454 2.63528 31.5294 7.81928 31.5294 14.2118Z" fill="currentColor"/>
    <path d="M21.9992 16.2582C23.1294 15.128 23.1294 13.2956 21.9992 12.1654C20.8689 11.0351 19.0365 11.0351 17.9063 12.1654C16.7761 13.2956 16.7761 15.128 17.9063 16.2582C19.0365 17.3884 20.8689 17.3884 21.9992 16.2582Z" fill="currentColor"/>
</symbol>

<symbol id="download" viewBox="0 0 20 20">
    <path d="M17.5 12.5V13.5C17.5 14.9001 17.5 15.6002 17.2275 16.135C16.9878 16.6054 16.6054 16.9878 16.135 17.2275C15.6002 17.5 14.9001 17.5 13.5 17.5H6.5C5.09987 17.5 4.3998 17.5 3.86502 17.2275C3.39462 16.9878 3.01217 16.6054 2.77248 16.135C2.5 15.6002 2.5 14.9001 2.5 13.5V12.5M14.1667 8.33333L10 12.5M10 12.5L5.83333 8.33333M10 12.5V2.5" stroke="currentColor" stroke-width="2" stroke-linecap="round" stroke-linejoin="round" fill="none"/>
</symbol>

<symbol id="next" viewBox="0 0 74 64"><path d="M37.5896 0.25L74.5396 64.25H0.639648L37.5896 0.25Z" fill="currentColor"></path></symbol>

<symbol id="js" viewBox="0 0 56 56" fill="none" >
<path d="M0 56V0H56V56H0Z" fill="currentColor"/>
<path d="M36.6147 41.9176C37.6912 43.666 38.861 45.3414 41.339 45.3414C43.4203 45.3414 44.5123 44.3069 44.5123 42.8758C44.5123 41.1631 43.383 40.5549 41.0932 39.5578L39.8378 39.0227C36.215 37.4858 33.8054 35.56 33.8054 31.4923C33.8054 27.7434 36.6754 24.8905 41.1601 24.8905C44.3536 24.8905 46.6481 25.9965 48.3032 28.8929L44.3925 31.3927C43.5323 29.8558 42.6021 29.2507 41.1601 29.2507C39.6885 29.2507 38.7567 30.1794 38.7567 31.3927C38.7567 32.8922 39.6901 33.4989 41.8445 34.4276L43.0998 34.9627C47.3698 36.7811 49.7778 38.6385 49.7778 42.8136C49.7778 47.3122 46.225 49.7778 41.4556 49.7778C36.7905 49.7778 34.1414 47.4367 32.6667 44.5387L36.6147 41.9176ZM18.5921 42.0451C19.3792 43.4545 20.5754 44.5387 22.2958 44.5387C23.9416 44.5387 24.889 43.8885 24.889 41.3607V24.8889H30.0736V42.1571C30.0736 47.3947 27.0356 49.7778 22.5992 49.7778C18.5905 49.7778 15.6972 47.0618 14.5181 44.5387L18.5921 42.0451Z" fill="white"/>
</symbol>

<symbol id="css" viewBox="14 0 197 224.7"><path d="M14 2.7c0 1.5 3.8 45.5 8.5 97.8 4.6 52.2 8.6 96.5 8.7 98.4l.3 3.4L72 213.5l40.4 11.2 8.1-2.2c4.4-1.2 22.5-6.2 40.3-11.1 27.6-7.6 32.3-9.2 32.7-10.9C194 198.1 211 5.4 211 2.2V0H14zm160.7 42.5c-.4 2.4-3 30.8-5.8 63.3-2.9 32.4-5.3 59.2-5.5 59.4-.4.5-49.5 14.1-50.9 14.1-1 0-27.8-7.3-46.1-12.5l-5.1-1.5-1.2-13.2c-.6-7.3-1.4-16.1-1.8-19.6l-.6-6.2h12.5c14.1 0 13.7-.2 13.8 8.5 0 2.2.3 5.6.6 7.6l.6 3.6 13.7 3.6 13.6 3.6 13.5-3.6c7.4-2 13.6-3.7 13.6-3.7.1-.1.7-6 1.3-13.1.6-7.2 1.3-14.2 1.6-15.8l.5-2.7H57.2l-.5-2.3c-.3-1.2-.9-7-1.3-13L54.7 91h90.1l.6-6.8c.4-3.7 1-9.4 1.3-12.6.4-4.1.3-5.7-.5-5.2-.6.3-21.9.3-47.5-.1l-46.5-.6-.6-7.1c-.4-3.9-.9-9.5-1.2-12.4l-.6-5.2h125.4z" fill="currentColor"/></symbol>

<symbol id="html" viewBox="74.634 0 362.733 512" fill="currentColor"><path d="M107.644 470.877L74.634 100.62h362.733l-33.046 370.199L255.778 512z"/><path d="M256 480.522l120.03-33.276 28.24-316.352H256z"/><g fill="#fff"><path d="M256 268.217h-60.09l-4.15-46.501H256v-45.411H142.132l1.087 12.183 11.161 125.139H256zM256 386.153l-.198.053-50.575-13.656-3.233-36.217h-45.585l6.362 71.301 93.02 25.823.209-.058z"/></g><path d="M108.382 0h23.077v22.8h21.11V0h23.078v69.044H152.57v-23.12h-21.11v23.12h-23.076V0h-.002zM205.994 22.896h-20.315V0h63.72v22.896h-20.325v46.148h-23.078l-.002-46.148zM259.511 0h24.062l14.802 24.26L313.163 0h24.072v69.044h-22.982V34.822l-15.877 24.549h-.396l-15.889-24.549v34.222h-22.579V0zM348.72 0h23.084v46.222h32.453v22.822H348.72V0z"/><g fill="#fff"><path d="M255.844 268.217v45.41h55.917l-5.271 58.894-50.646 13.67v47.244l93.093-25.801.683-7.672 10.671-119.551 1.108-12.194h-12.237zM255.844 176.305V221.716h109.687l.911-10.207 2.069-23.021 1.086-12.183z"/></g></symbol>

<symbol id="react" viewBox="175.7 78 490.6 436.9" ><g fill="cuentColor"><path d="m666.3 296.5c0-32.5-40.7-63.3-103.1-82.4 14.4-63.6 8-114.2-20.2-130.4-6.5-3.8-14.1-5.6-22.4-5.6v22.3c4.6 0 8.3.9 11.4 2.6 13.6 7.8 19.5 37.5 14.9 75.7-1.1 9.4-2.9 19.3-5.1 29.4-19.6-4.8-41-8.5-63.5-10.9-13.5-18.5-27.5-35.3-41.6-50 32.6-30.3 63.2-46.9 84-46.9v-22.3c-27.5 0-63.5 19.6-99.9 53.6-36.4-33.8-72.4-53.2-99.9-53.2v22.3c20.7 0 51.4 16.5 84 46.6-14 14.7-28 31.4-41.3 49.9-22.6 2.4-44 6.1-63.6 11-2.3-10-4-19.7-5.2-29-4.7-38.2 1.1-67.9 14.6-75.8 3-1.8 6.9-2.6 11.5-2.6v-22.3c-8.4 0-16 1.8-22.6 5.6-28.1 16.2-34.4 66.7-19.9 130.1-62.2 19.2-102.7 49.9-102.7 82.3 0 32.5 40.7 63.3 103.1 82.4-14.4 63.6-8 114.2 20.2 130.4 6.5 3.8 14.1 5.6 22.5 5.6 27.5 0 63.5-19.6 99.9-53.6 36.4 33.8 72.4 53.2 99.9 53.2 8.4 0 16-1.8 22.6-5.6 28.1-16.2 34.4-66.7 19.9-130.1 62-19.1 102.5-49.9 102.5-82.3zm-130.2-66.7c-3.7 12.9-8.3 26.2-13.5 39.5-4.1-8-8.4-16-13.1-24-4.6-8-9.5-15.8-14.4-23.4 14.2 2.1 27.9 4.7 41 7.9zm-45.8 106.5c-7.8 13.5-15.8 26.3-24.1 38.2-14.9 1.3-30 2-45.2 2-15.1 0-30.2-.7-45-1.9-8.3-11.9-16.4-24.6-24.2-38-7.6-13.1-14.5-26.4-20.8-39.8 6.2-13.4 13.2-26.8 20.7-39.9 7.8-13.5 15.8-26.3 24.1-38.2 14.9-1.3 30-2 45.2-2 15.1 0 30.2.7 45 1.9 8.3 11.9 16.4 24.6 24.2 38 7.6 13.1 14.5 26.4 20.8 39.8-6.3 13.4-13.2 26.8-20.7 39.9zm32.3-13c5.4 13.4 10 26.8 13.8 39.8-13.1 3.2-26.9 5.9-41.2 8 4.9-7.7 9.8-15.6 14.4-23.7 4.6-8 8.9-16.1 13-24.1zm-101.4 106.7c-9.3-9.6-18.6-20.3-27.8-32 9 .4 18.2.7 27.5.7 9.4 0 18.7-.2 27.8-.7-9 11.7-18.3 22.4-27.5 32zm-74.4-58.9c-14.2-2.1-27.9-4.7-41-7.9 3.7-12.9 8.3-26.2 13.5-39.5 4.1 8 8.4 16 13.1 24s9.5 15.8 14.4 23.4zm73.9-208.1c9.3 9.6 18.6 20.3 27.8 32-9-.4-18.2-.7-27.5-.7-9.4 0-18.7.2-27.8.7 9-11.7 18.3-22.4 27.5-32zm-74 58.9c-4.9 7.7-9.8 15.6-14.4 23.7-4.6 8-8.9 16-13 24-5.4-13.4-10-26.8-13.8-39.8 13.1-3.1 26.9-5.8 41.2-7.9zm-90.5 125.2c-35.4-15.1-58.3-34.9-58.3-50.6s22.9-35.6 58.3-50.6c8.6-3.7 18-7 27.7-10.1 5.7 19.6 13.2 40 22.5 60.9-9.2 20.8-16.6 41.1-22.2 60.6-9.9-3.1-19.3-6.5-28-10.2zm53.8 142.9c-13.6-7.8-19.5-37.5-14.9-75.7 1.1-9.4 2.9-19.3 5.1-29.4 19.6 4.8 41 8.5 63.5 10.9 13.5 18.5 27.5 35.3 41.6 50-32.6 30.3-63.2 46.9-84 46.9-4.5-.1-8.3-1-11.3-2.7zm237.2-76.2c4.7 38.2-1.1 67.9-14.6 75.8-3 1.8-6.9 2.6-11.5 2.6-20.7 0-51.4-16.5-84-46.6 14-14.7 28-31.4 41.3-49.9 22.6-2.4 44-6.1 63.6-11 2.3 10.1 4.1 19.8 5.2 29.1zm38.5-66.7c-8.6 3.7-18 7-27.7 10.1-5.7-19.6-13.2-40-22.5-60.9 9.2-20.8 16.6-41.1 22.2-60.6 9.9 3.1 19.3 6.5 28.1 10.2 35.4 15.1 58.3 34.9 58.3 50.6-.1 15.7-23 35.6-58.4 50.6z"/><circle cx="420.9" cy="296.5" r="45.7"/></g></symbol>

<symbol id="vue" fill="curentColor"  viewBox="0 0 24 24" >
    <path d="m12 12.765 5.592-9.437h-3.276L12 7.33v.002L9.688 3.328h-3.28z"/><path d="M18.461 3.332 12 14.235 5.539 3.332H1.992L12 20.672l10.008-17.34z"/>
</symbol>

<symbol id="angular" viewBox="0 0 256 272" preserveAspectRatio="xMidYMid">
    <path d="M.1 45.522L125.908.697l129.196 44.028-20.919 166.45-108.277 59.966-106.583-59.169L.1 45.522z" fill="currentColor"/><path d="M255.104 44.725L125.908.697v270.444l108.277-59.866 20.919-166.55z" fill="currentColor"/>
    <path d="M126.107 32.274L47.714 206.693l29.285-.498 15.739-39.347h70.325l17.233 39.845 27.99.498-82.179-174.917zm.2 55.882l26.496 55.383h-49.806l23.31-55.383z" fill="#FFF"/>
</symbol>

</svg>